# xmcd
#
# Track frame offsets: 
#        150
#        16921
#        31886
#        47261
#        65653
#        80531
#        98968
#        117949
#        137557
#        157586
#        174167
#
# Disc length: 2527 seconds
#
# Revision: 1
# Processed by: cddbd v1.5.2PL0 Copyright (c) Steve Scherf et al.
# Submitted via: ExactAudioCopy v0.95b4
#
DISCID=7809dd0b
DTITLE=Shane Henry - Deliverance
DYEAR=2004
DGENRE=Blues Rock
TTITLE0=Deliverance
TTITLE1=In too deep
TTITLE2=40 days and 40 nights
TTITLE3=Lost Angelo
TTITLE4=Mother freedom
TTITLE5=Healing ground
TTITLE6=She who loves
TTITLE7=Looking glass
TTITLE8=She flickers and fades
TTITLE9=Tomorrow's gone
TTITLE10=The bitter end
EXTD=
EXTT0=
EXTT1=
EXTT2=
EXTT3=
EXTT4=
EXTT5=
EXTT6=
EXTT7=
EXTT8=
EXTT9=
EXTT10=
PLAYORDER=
